# xmcd
#
# Track frame offsets:
#   150
#   14763
#   30645
#   48226
#   69582
#   91612
#   114170
#   136760
#   159532
#   185227
#   217153
#   235464
#   255734
#
# Disc length: 3698 seconds
#
# Revision: 0
# Processed by: cddbd v1.5.1PL0 Copyright (c) Steve Scherf et al.
# Submitted via: uFREEDB 1.6.2
#
DISCID=b40e700d
DTITLE=nu hon bat ngo - first kiss
DYEAR=1900
DGENRE=Alternative
TTITLE0=nu hon bat ngo
TTITLE1=mua he que huong
TTITLE2=first kiss
TTITLE3=van no cuoc doi
TTITLE4=bon ngan nam ruc ro gam hoa
TTITLE5=yeu dai kho
TTITLE6=mai yeu
TTITLE7=vi dau
TTITLE8=uoc gi
TTITLE9=dau yeu
TTITLE10=toc nau moi tram
TTITLE11=bup be khong tinh yeu
TTITLE12=cay dan sinh vien
EXTD=
EXTT0=
EXTT1=
EXTT2=
EXTT3=
EXTT4=
EXTT5=
EXTT6=
EXTT7=
EXTT8=
EXTT9=
EXTT10=
EXTT11=
EXTT12=
PLAYORDER=
